<svg xmlns="http://www.w3.org/2000/svg" xml:space="preserve" viewBox="0 0 405.2 405.2"><path d="M249 330.6H28.3V87h335.6v181.6l28.3 28.3V26.2c0-13-10.6-23.6-23.6-23.6h-345C10.6 2.6 0 13.2 0 26.2v309.1c0 13 10.6 23.6 23.6 23.6h238.9c-13.1-18.6-13.5-28.3-13.5-28.3m89-288.4c0-4.8 4-8.7 8.7-8.7h8.7c4.8 0 8.7 3.9 8.7 8.7v9.9c0 4.8-3.9 8.7-8.7 8.7h-8.7A8.7 8.7 0 0 1 338 52zm-40.4 0c0-4.8 3.9-8.7 8.7-8.7h8.7c4.8 0 8.7 3.9 8.7 8.7v9.9c0 4.8-4 8.7-8.7 8.7h-8.7a8.7 8.7 0 0 1-8.7-8.7zm-40.5 0c0-4.8 3.9-8.7 8.7-8.7h8.7c4.8 0 8.7 3.9 8.7 8.7v9.9c0 4.8-3.9 8.7-8.7 8.7h-8.7a8.7 8.7 0 0 1-8.7-8.7z"/><path d="M392.6 322.2 351.4 281a43 43 0 0 0-34-12.5c1-12.1-3.1-24.6-12.4-34l-41.2-41.1a43.3 43.3 0 0 0-61 0l-6.8 6.7a43.3 43.3 0 0 0 0 61l41.2 41.3a43 43 0 0 0 34 12.4 43 43 0 0 0 12.5 34l41.1 41.2a43.3 43.3 0 0 0 61.1 0l6.7-6.7a43.3 43.3 0 0 0 0-61.1m-130.3-48 17 17c-8.7 5.2-20 4-27.6-3.4l-41.1-41.2a22.7 22.7 0 0 1 0-32l6.7-6.6a22.7 22.7 0 0 1 32 0l41.1 41.1a23 23 0 0 1 3.5 27.6l-17-17a10.3 10.3 0 1 0-14.6 14.5M378 368.7l-6.7 6.7a22.7 22.7 0 0 1-32 0l-41.2-41.1a23 23 0 0 1-3.4-27.6l17 17a10.3 10.3 0 1 0 14.6-14.5l-17-17c8.6-5.2 20-4 27.5 3.4l41.2 41.1a22.7 22.7 0 0 1 0 32"/></svg>