<svg xmlns="http://www.w3.org/2000/svg" viewBox="0 0 490 490" xml:space="preserve"><path d="M487.48 357.88c2.71-3.08 4.25-16.3-7.83-17.31H74.72C33.52 340.57 0 374.09 0 415.29S33.52 490 74.72 490h404.93c14.28-1.61 10.5-14.36 7.73-17.42-34.86-38.52-34.81-74.96.1-114.7m-29.32 111.27H74.72a53.9 53.9 0 0 1-53.87-53.86 53.93 53.93 0 0 1 53.87-53.87h383.72c-24.14 36.19-24.24 72.29-.28 107.73M10.35 319.71h404.93c41.2 0 74.72-33.51 74.72-74.7s-33.52-74.73-74.72-74.73H188.75v-20.85h290.9c14.28-1.6 10.5-14.36 7.73-17.42-34.85-38.53-34.81-74.96.1-114.7C490.2 14.23 491.73 1 479.65 0H74.72C33.52 0 0 33.52 0 74.72s33.52 74.71 74.72 74.71h13.32v20.85h-77.7c-12.07 1-10.53 14.24-7.82 17.31 34.92 39.74 34.96 76.18.1 114.7-2.77 3.06-6.55 15.81 7.73 17.42m64.37-191.13a53.9 53.9 0 0 1-53.87-53.86 53.93 53.93 0 0 1 53.87-53.87h383.72c-24.14 36.19-24.24 72.29-.28 107.73H188.75V74.72c0-5.77-4.67-10.43-10.43-10.43H98.47a10.4 10.4 0 0 0-10.43 10.43v53.86zm93.18-43.44v130.28l-23.07-18.07a10.45 10.45 0 0 0-12.87 0l-23.07 18.07V85.14zm-79.86 106v45.7c-.6 9.07 6.3 17.95 16.86 8.2l33.5-26.24 33.49 26.24c10.97 8.89 17.7.52 16.86-8.2v-45.7h226.53A53.93 53.93 0 0 1 469.14 245a53.9 53.9 0 0 1-53.86 53.86H31.84c23.96-35.44 23.86-71.54-.28-107.73z"/></svg>