<svg xmlns="http://www.w3.org/2000/svg" viewBox="0 0 453 453" xml:space="preserve"><path d="M404.3 0H48.6A49 49 0 0 0 0 48.7v355.6A49 49 0 0 0 48.6 453h355.7c26.8 0 48.7-22 48.7-48.7V48.7C453 21.9 431 0 404.3 0M148.4 33.6h156V74h-156zM411 406.4H42v-294h369z" fill="#010002"/><path d="M79.3 246.2h48.6v48.7H79.3zm0 77.1h48.6v48.6H79.3zm81.6-154.1h48.6v48.6h-48.6zm0 77h48.6v48.7h-48.6zm0 77.1h48.6v48.6h-48.6zm81.5-154.1h48.7v48.6h-48.7zm0 77h48.7v48.7h-48.7zm0 77.1h48.7v48.6h-48.7zm81.5-154.1h48.7v48.6h-48.7zm0 77h48.7v48.7h-48.7z"/></svg>