<svg xmlns="http://www.w3.org/2000/svg" xml:space="preserve" viewBox="0 0 256 178"><path d="M183.9 38.2a16.3 16.3 0 1 0 32.6 0 16.3 16.3 0 0 0-32.6 0m-16.7 54.6V80c0-11.2 9.1-20.4 20.3-20.4h26.7c11.2 0 20.3 9.1 20.3 20.4v12.7zM95.7 2.4V26a38.5 38.5 0 0 0-36.5 23.6L2 175.5h78.8l5-17a64 64 0 0 0 45.5-43.8h.1l.6-2.2h122V2.4zm150.4 102.3H115.4a49 49 0 0 1-29.2 35 4 4 0 1 1-3-7.2 40 40 0 0 0 25.1-35.6v-4h40.4a10.8 10.8 0 0 0 0-21.6H77.8a4 4 0 0 1 0-8h25.8v-53h142.5zM115.4 26h44.1v7.8h-44zm0 19.6h44.1v8h-44z"/></svg>