<svg xmlns="http://www.w3.org/2000/svg" xml:space="preserve" viewBox="0 0 575.8 575.8"><path d="M326.7 327.8V376a152 152 0 0 0 112.8-146.5c0-83.6-68-151.6-151.6-151.6s-151.6 68-151.6 151.6c0 70.2 48 129.4 112.8 146.5v-48.2a105.8 105.8 0 1 1 144.4-98.3c0 44.6-27.7 82.8-66.8 98.3"/><path d="M517.4 229.5C517.4 103 414.4 0 287.9 0S58.4 103 58.4 229.5a230 230 0 0 0 190.7 226.1V409a184 184 0 0 1-144.8-179.4A184 184 0 0 1 287.9 45.9a184 184 0 0 1 183.6 183.6c0 88-62.2 161.6-144.8 179.4v46.7a230 230 0 0 0 190.7-226.1"/><path d="M264.4 379.2v196.6h47V300.6a75 75 0 0 0 15.3-7 75 75 0 1 0-62.3 7zM260 221.8q1-4.1 3.3-7.6a29 29 0 1 1-3.3 7.6"/></svg>