<svg xmlns="http://www.w3.org/2000/svg" viewBox="0 0 299.83 299.83" xml:space="preserve"><path d="M271.2 117.72c-14.25-53.64-63.22-93.29-121.28-93.29S42.88 64.08 28.63 117.72C12.53 119.6 0 133.32 0 149.92s12.53 30.3 28.63 32.2c14.25 53.63 63.22 93.28 121.29 93.28s107.03-39.65 121.28-93.29c16.1-1.88 28.63-15.6 28.63-32.2s-12.53-30.3-28.63-32.2M149.92 251.7c-56.13 0-101.78-45.66-101.78-101.78A101.8 101.8 0 0 1 96.35 63.4a6.6 6.6 0 0 1-3.16 5.46 11.85 11.85 0 1 0 12.35 20.23 30 30 0 0 0 13.67-18.73 30 30 0 0 0-.87-17.21q4.14-1.36 8.44-2.37c6.4 16.57.25 35.9-15.44 45.47a11.85 11.85 0 1 0 12.34 20.23 61.3 61.3 0 0 0 27.14-68.34q6.96.07 13.66 1.03a61.8 61.8 0 0 1-27.53 68.02 11.85 11.85 0 1 0 12.34 20.23c28.33-17.28 43.53-49.28 40.43-81.19 36.4 15.53 61.98 51.67 61.98 93.68 0 56.12-45.66 101.78-101.78 101.78"/><path d="M129.22 159.27c0-6.54-5.3-11.85-11.85-11.85h-13.72a11.85 11.85 0 0 0 0 23.7h13.72c6.55 0 11.85-5.3 11.85-11.85m66.96-11.85h-13.72a11.85 11.85 0 0 0 0 23.7h13.72a11.85 11.85 0 0 0 0-23.7m-13.92 53.38a11.85 11.85 0 0 0-16.72 1.17 20.7 20.7 0 0 1-31.25 0 11.85 11.85 0 0 0-17.88 15.56 44.4 44.4 0 0 0 67.01 0 11.85 11.85 0 0 0-1.16-16.72"/></svg>