<svg xmlns="http://www.w3.org/2000/svg" viewBox="0 0 291.7 291.7" xml:space="preserve"><path d="m291.7 145.9-39.5 28.5 20 44.4-48.5 5-4.9 48.4-44.4-20-28.5 39.5-28.6-39.5-44.4 20-4.9-48.5-48.5-4.9 20-44.4L0 145.9l39.5-28.6-20-44.4L68 68l5-48.5 44.3 20L146 0l28.5 39.5 44.4-20 5 48.5 48.4 5-20 44.3z" fill="#3db39e"/><path d="M108 127.6c-2.8 0-5 1.8-5 5v23.8l-21-26.7a6 6 0 0 0-4.1-2c-2.8 0-5 1.7-5 4.8v35.8c0 3.2 2.2 5 5 5s5-1.8 5-5v-23.5l21 26.4c1 1.1 2.9 2 4.1 2 2.9 0 5-1.7 5-4.8v-35.9c0-3.1-2.1-4.9-5-4.9m39.2 36.6H135v-9.6h11c3.1 0 4.8-2.2 4.8-4.3 0-2.3-1.6-4.4-4.8-4.4h-11v-9.2h11.6c3.1 0 4.7-2.2 4.7-4.4s-1.5-4.3-4.7-4.3h-16.3c-3.5 0-5.2 2.3-5.2 5.5v34.7c0 2.8 2.2 4.7 5.1 4.7h17c3.1 0 4.7-2.2 4.7-4.4s-1.5-4.3-4.7-4.3m66.8-36.6c-3.2 0-4.7 1.8-5.3 4.6l-5.6 26.8h-.1l-8.6-27.7c-.7-2.2-2.7-3.7-5.1-3.7s-4.4 1.5-5.2 3.7l-8.5 27.7h-.2l-5.6-26.8c-.6-2.8-2-4.6-5.2-4.6-3 0-4.7 2.2-4.7 4.2l.2 2.1 8.4 34.4c.7 2.7 2.8 5 6.5 5 3.3 0 5.8-2 6.6-4.6l7.6-24.4h.2l7.6 24.4a7 7 0 0 0 6.5 4.6c3.7 0 6-2.3 6.6-5l8.3-34.4.3-2.1c0-2-1.8-4.2-4.7-4.2" fill="#fff"/></svg>