<svg version="1.1" id="prefix__Capa_1" xmlns="http://www.w3.org/2000/svg" x="0" y="0" viewBox="0 0 395.7 395.7" xml:space="preserve"><style>.prefix__st0{fill:#dc6419}</style><path class="prefix__st0" d="M389.5 195.7c0 105.9-85.8 191.7-191.7 191.7-35.9 0-61.4-8.4-90.1-25.6-4.9 4.3-46.5 33.8-55.8 25.6-5.3-3.9 15.1-61.4 10.2-65.8-38-35-56-70-56-125.8C6.1 89.8 92 4 197.8 4s191.7 85.8 191.7 191.7"/><path d="M86.3 164.8h20.3c4.1 0 7.5-3.4 7.5-7.5s-3.4-7.5-7.5-7.5H86.3c-15.3 0-27.8 12.5-27.8 27.8s12.5 27.8 27.8 27.8c7 0 12.8 5.7 12.8 12.8 0 7-5.7 12.8-12.8 12.8H66c-4.1 0-7.5 3.4-7.5 7.5s3.4 7.5 7.5 7.5h20.3c15.3 0 27.8-12.5 27.8-27.8s-12.5-27.8-27.8-27.8c-7 0-12.8-5.7-12.8-12.8s5.7-12.8 12.8-12.8m174 66.1h-33.1v-73.6c0-4.1-3.4-7.5-7.5-7.5s-7.5 3.4-7.5 7.5v81.1c0 4.1 3.4 7.5 7.5 7.5h40.6c4.1 0 7.5-3.4 7.5-7.5s-3.4-7.5-7.5-7.5m69.3 0h-33.1v-25.6H312c4.1 0 7.5-3.4 7.5-7.5s-3.4-7.5-7.5-7.5h-15.4v-25.6h33.1c4.1 0 7.5-3.4 7.5-7.5s-3.4-7.5-7.5-7.5h-40.6c-4.1 0-7.5 3.4-7.5 7.5v81.1c0 4.1 3.4 7.5 7.5 7.5h40.6c4.1 0 7.5-3.4 7.5-7.5s-3.4-7.4-7.6-7.4m-169.7-80.6c-15.2 0-27.5 12.3-27.5 27.5v60.1c0 4.1 3.4 7.5 7.5 7.5s7.5-3.4 7.5-7.5v-19.5h25v19.5c0 4.1 3.4 7.5 7.5 7.5s7.5-3.4 7.5-7.5v-60.1c0-15.2-12.3-27.5-27.5-27.5m-12.5 53v-25.5a12.5 12.5 0 0 1 25 0v25.5z" fill="#fff"/><path class="prefix__st0" d="M197.8 0C89.9 0 2.1 87.8 2.1 195.7c0 48.5 17.8 94.8 50.1 130.8l-10.1 60.4c-.4 2.3.3 4.6 1.9 6.3 1.4 1.5 3.4 2.4 5.5 2.4h.7c1.5-.1 34.7-3.5 61.3-24.2 26.7 13.1 56.3 20 86.2 20 107.9 0 195.7-87.8 195.7-195.7S305.8 0 197.8 0m0 376.4c-29.1 0-58.1-7.1-83.7-20.5-2.7-1.4-6.1-1-8.4 1-15.6 13.5-35.4 19.5-47 22.1l8.9-53.6c.4-2.3-.3-4.6-1.9-6.4a180 180 0 0 1-48.6-123.3C17.1 96.1 98.2 15 197.8 15s180.7 81.1 180.7 180.7-81 180.7-180.7 180.7"/></svg>